HIERARCHY
ROOT Hips
{
	OFFSET 0.000000 71.427986 0.000000
	CHANNELS 6 Xposition Yposition Zposition Xrotation Yrotation Zrotation
	JOINT Pelvis
	{
		OFFSET 0.000000 0.000000 0.000000
		CHANNELS 3 Xrotation Yrotation Zrotation
		JOINT LeftUpLeg
		{
			OFFSET 6.797100 -2.508499 -1.318700
			CHANNELS 3 Xrotation Yrotation Zrotation
			JOINT LeftLeg
			{
				OFFSET 0.069008 -29.241863 0.690200
				CHANNELS 3 Xrotation Yrotation Zrotation
				JOINT LeftFoot
				{
					OFFSET -0.069008 -29.568123 -0.266800
					CHANNELS 3 Xrotation Yrotation Zrotation
					JOINT LeftToeBase
					{
						OFFSET 3.145500 -8.631000 16.059900
						CHANNELS 3 Xrotation Yrotation Zrotation
						End Site
						{
							OFFSET 0.000000 18.501587 0.000000
						}
					}
				}
			}
			JOINT Left_ShortSleeve
			{
				OFFSET 0.265923 -10.480953 1.153800
				CHANNELS 3 Xrotation Yrotation Zrotation
				End Site
				{
					OFFSET 1.725763 19.823879 0.000000
				}
			}
		}
		JOINT RightUpLeg
		{
			OFFSET -6.797100 -2.508499 -1.318700
			CHANNELS 3 Xrotation Yrotation Zrotation
			JOINT RightLeg
			{
				OFFSET -0.082453 -29.241932 0.688000
				CHANNELS 3 Xrotation Yrotation Zrotation
				JOINT RightFoot
				{
					OFFSET 0.082453 -29.568058 -0.264600
					CHANNELS 3 Xrotation Yrotation Zrotation
					JOINT RightToeBase
					{
						OFFSET -3.115300 -8.682800 16.113400
						CHANNELS 3 Xrotation Yrotation Zrotation
						End Site
						{
							OFFSET 0.000000 18.567114 0.000000
						}
					}
				}
			}
			JOINT Right_ShortSleeve
			{
				OFFSET -0.265923 -10.480953 1.153800
				CHANNELS 3 Xrotation Yrotation Zrotation
				End Site
				{
					OFFSET -1.725766 19.823910 0.000000
				}
			}
		}
	}
	JOINT Spine
	{
		OFFSET 0.000000 13.368103 0.470500
		CHANNELS 3 Xrotation Yrotation Zrotation
		JOINT Spine1
		{
			OFFSET 0.147000 13.837402 0.538800
			CHANNELS 3 Xrotation Yrotation Zrotation
			JOINT Spine2
			{
				OFFSET 0.168000 16.242897 -1.435500
				CHANNELS 3 Xrotation Yrotation Zrotation
				JOINT Neck
				{
					OFFSET 0.217200 18.631500 -1.679100
					CHANNELS 3 Xrotation Yrotation Zrotation
					JOINT Head
					{
						OFFSET 0.000000 6.599396 1.385900
						CHANNELS 3 Xrotation Yrotation Zrotation
						JOINT Hat
						{
							OFFSET -0.532200 27.220596 -10.096100
							CHANNELS 3 Xrotation Yrotation Zrotation
							End Site
							{
								OFFSET 0.000000 22.029861 0.000000
							}
						}
						JOINT HairD
						{
							OFFSET -10.777400 17.437393 -1.325900
							CHANNELS 3 Xrotation Yrotation Zrotation
							JOINT HairD1
							{
								OFFSET -3.290299 -11.051193 1.062200
								CHANNELS 3 Xrotation Yrotation Zrotation
								End Site
								{
									OFFSET 0.000000 11.579437 0.000000
								}
							}
						}
						JOINT HairB
						{
							OFFSET -10.777400 17.437393 1.467900
							CHANNELS 3 Xrotation Yrotation Zrotation
							JOINT HairB1
							{
								OFFSET -1.561200 -12.956299 3.590200
								CHANNELS 3 Xrotation Yrotation Zrotation
								End Site
								{
									OFFSET 0.000000 13.534866 0.000000
								}
							}
						}
						JOINT HairA
						{
							OFFSET 9.713100 17.437393 1.467900
							CHANNELS 3 Xrotation Yrotation Zrotation
							JOINT HairA1
							{
								OFFSET 1.561200 -12.956299 3.590200
								CHANNELS 3 Xrotation Yrotation Zrotation
								End Site
								{
									OFFSET 0.000000 13.534866 0.000000
								}
							}
						}
						JOINT HairC
						{
							OFFSET 9.713100 17.437393 -1.325900
							CHANNELS 3 Xrotation Yrotation Zrotation
							JOINT HairC1
							{
								OFFSET 3.290300 -11.051193 1.062200
								CHANNELS 3 Xrotation Yrotation Zrotation
								End Site
								{
									OFFSET 0.000000 11.579437 0.000000
								}
							}
						}
					}
				}
				JOINT LeftShoulder
				{
					OFFSET 5.101800 15.108002 -2.763700
					CHANNELS 3 Xrotation Yrotation Zrotation
					JOINT LeftArm
					{
						OFFSET 9.825497 2.506317 -1.597400
						CHANNELS 3 Xrotation Yrotation Zrotation
						JOINT LeftForeArm
						{
							OFFSET 21.966244 0.000000 0.000000
							CHANNELS 3 Xrotation Yrotation Zrotation
							JOINT LeftHand
							{
								OFFSET 33.879036 0.000000 0.000000
								CHANNELS 3 Xrotation Yrotation Zrotation
								JOINT LeftHandThumb1
								{
									OFFSET 6.715286 -2.359680 3.363841
									CHANNELS 3 Xrotation Yrotation Zrotation
									JOINT LeftHandThumb2
									{
										OFFSET 2.507072 -1.447464 1.447461
										CHANNELS 3 Xrotation Yrotation Zrotation
										JOINT LeftHandThumb3
										{
											OFFSET 2.898338 -1.673355 1.673357
											CHANNELS 3 Xrotation Yrotation Zrotation
											End Site
											{
												OFFSET -0.295959 3.727692 -0.131651
											}
										}
									}
								}
								JOINT LeftHandIndex1
								{
									OFFSET 14.190811 -0.254547 3.840278
									CHANNELS 3 Xrotation Yrotation Zrotation
									JOINT LeftHandIndex2
									{
										OFFSET 3.551727 0.000000 -0.000000
										CHANNELS 3 Xrotation Yrotation Zrotation
										JOINT LeftHandIndex3
										{
											OFFSET 2.894196 0.000000 0.000000
											CHANNELS 3 Xrotation Yrotation Zrotation
											End Site
											{
												OFFSET -1.000603 2.690872 0.366626
											}
										}
									}
								}
								JOINT LeftHandMiddle1
								{
									OFFSET 13.776489 0.000000 0.000000
									CHANNELS 3 Xrotation Yrotation Zrotation
									JOINT LeftHandMiddle2
									{
										OFFSET 3.438232 0.000000 0.000000
										CHANNELS 3 Xrotation Yrotation Zrotation
										JOINT LeftHandMiddle3
										{
											OFFSET 3.691551 0.000000 0.000000
											CHANNELS 3 Xrotation Yrotation Zrotation
											End Site
											{
												OFFSET -1.082298 3.499527 0.457670
											}
										}
									}
								}
								JOINT LeftHandRing1
								{
									OFFSET 13.966164 -0.268127 -3.067488
									CHANNELS 3 Xrotation Yrotation Zrotation
									JOINT LeftHandRing2
									{
										OFFSET 3.162567 0.000000 0.000000
										CHANNELS 3 Xrotation Yrotation Zrotation
										JOINT LeftHandRing3
										{
											OFFSET 3.324348 0.000000 0.000000
											CHANNELS 3 Xrotation Yrotation Zrotation
											End Site
											{
												OFFSET -0.861900 3.184998 0.405154
											}
										}
									}
								}
								JOINT LeftHandPinky1
								{
									OFFSET 13.131393 -0.168503 -5.746925
									CHANNELS 3 Xrotation Yrotation Zrotation
									JOINT LeftHandPinky2
									{
										OFFSET 2.849182 0.000000 0.000000
										CHANNELS 3 Xrotation Yrotation Zrotation
										JOINT LeftHandPinky3
										{
											OFFSET 2.805038 0.000000 0.000000
											CHANNELS 3 Xrotation Yrotation Zrotation
											End Site
											{
												OFFSET -0.882500 2.642609 0.325652
											}
										}
									}
								}
							}
							JOINT Left_Sleeve
							{
								OFFSET 6.592125 -0.646545 0.805568
								CHANNELS 3 Xrotation Yrotation Zrotation
								End Site
								{
									OFFSET -0.000179 20.275787 -0.000000
								}
							}
						}
					}
				}
				JOINT RightShoulder
				{
					OFFSET -5.731700 15.108002 -2.763700
					CHANNELS 3 Xrotation Yrotation Zrotation
					JOINT RightArm
					{
						OFFSET -9.825497 2.506317 -1.597400
						CHANNELS 3 Xrotation Yrotation Zrotation
						JOINT RightForeArm
						{
							OFFSET -21.966242 0.000000 0.000000
							CHANNELS 3 Xrotation Yrotation Zrotation
							JOINT RightHand
							{
								OFFSET -33.879032 0.000000 0.000000
								CHANNELS 3 Xrotation Yrotation Zrotation
								JOINT RightHandThumb1
								{
									OFFSET -6.715286 -2.359680 3.363841
									CHANNELS 3 Xrotation Yrotation Zrotation
									JOINT RightHandThumb2
									{
										OFFSET -2.507072 -1.447464 1.447461
										CHANNELS 3 Xrotation Yrotation Zrotation
										JOINT RightHandThumb3
										{
											OFFSET -2.898338 -1.673355 1.673357
											CHANNELS 3 Xrotation Yrotation Zrotation
											End Site
											{
												OFFSET 0.295959 3.727692 -0.131651
											}
										}
									}
								}
								JOINT RightHandIndex1
								{
									OFFSET -14.190811 -0.254547 3.840278
									CHANNELS 3 Xrotation Yrotation Zrotation
									JOINT RightHandIndex2
									{
										OFFSET -3.551727 0.000000 -0.000000
										CHANNELS 3 Xrotation Yrotation Zrotation
										JOINT RightHandIndex3
										{
											OFFSET -2.894196 0.000000 0.000000
											CHANNELS 3 Xrotation Yrotation Zrotation
											End Site
											{
												OFFSET 1.000603 2.690872 0.366626
											}
										}
									}
								}
								JOINT RightHandMiddle1
								{
									OFFSET -13.776489 0.000000 0.000000
									CHANNELS 3 Xrotation Yrotation Zrotation
									JOINT RightHandMiddle2
									{
										OFFSET -3.438232 0.000000 0.000000
										CHANNELS 3 Xrotation Yrotation Zrotation
										JOINT RightHandMiddle3
										{
											OFFSET -3.691551 0.000000 0.000000
											CHANNELS 3 Xrotation Yrotation Zrotation
											End Site
											{
												OFFSET 1.082298 3.499527 0.457670
											}
										}
									}
								}
								JOINT RightHandRing1
								{
									OFFSET -13.966164 -0.268127 -3.067488
									CHANNELS 3 Xrotation Yrotation Zrotation
									JOINT RightHandRing2
									{
										OFFSET -3.162567 0.000000 0.000000
										CHANNELS 3 Xrotation Yrotation Zrotation
										JOINT RightHandRing3
										{
											OFFSET -3.324348 0.000000 0.000000
											CHANNELS 3 Xrotation Yrotation Zrotation
											End Site
											{
												OFFSET 0.861900 3.184998 0.405154
											}
										}
									}
								}
								JOINT RightHandPinky1
								{
									OFFSET -13.131393 -0.168503 -5.746925
									CHANNELS 3 Xrotation Yrotation Zrotation
									JOINT RightHandPinky2
									{
										OFFSET -2.849182 0.000000 0.000000
										CHANNELS 3 Xrotation Yrotation Zrotation
										JOINT RightHandPinky3
										{
											OFFSET -2.805038 0.000000 0.000000
											CHANNELS 3 Xrotation Yrotation Zrotation
											End Site
											{
												OFFSET 0.882500 2.642609 0.325652
											}
										}
									}
								}
							}
							JOINT Right_Sleeve
							{
								OFFSET -6.592125 -0.646545 0.805568
								CHANNELS 3 Xrotation Yrotation Zrotation
								End Site
								{
									OFFSET 0.000179 20.275787 -0.000000
								}
							}
						}
					}
				}
				JOINT Bind_Right_JacketString
				{
					OFFSET -3.534800 11.969597 7.200700
					CHANNELS 3 Xrotation Yrotation Zrotation
					JOINT Bind_Right_JacketString1
					{
						OFFSET -0.319900 -6.102600 2.794100
						CHANNELS 3 Xrotation Yrotation Zrotation
						End Site
						{
							OFFSET 0.000000 6.719452 0.000000
						}
					}
				}
				JOINT Bind_Left_JacketString
				{
					OFFSET 2.904800 11.969597 7.200700
					CHANNELS 3 Xrotation Yrotation Zrotation
					JOINT Bind_Left_JacketString1
					{
						OFFSET 0.364800 -5.904503 3.186800
						CHANNELS 3 Xrotation Yrotation Zrotation
						End Site
						{
							OFFSET 0.000000 6.719513 0.000000
						}
					}
				}
				JOINT HairE
				{
					OFFSET 5.915200 17.612701 -11.592200
					CHANNELS 3 Xrotation Yrotation Zrotation
					JOINT HairE1
					{
						OFFSET 0.289200 -7.171898 -1.284500
						CHANNELS 3 Xrotation Yrotation Zrotation
						End Site
						{
							OFFSET 0.000000 7.291756 0.000000
						}
					}
				}
				JOINT HairF
				{
					OFFSET -0.864800 17.612701 -11.592200
					CHANNELS 3 Xrotation Yrotation Zrotation
					JOINT HairF1
					{
						OFFSET 0.000000 -14.087097 -2.127501
						CHANNELS 3 Xrotation Yrotation Zrotation
						End Site
						{
							OFFSET 0.000000 14.246841 0.000000
						}
					}
				}
				JOINT HairG
				{
					OFFSET -8.087700 17.612701 -11.592200
					CHANNELS 3 Xrotation Yrotation Zrotation
					JOINT HairG1
					{
						OFFSET -0.293600 -6.081398 -0.910100
						CHANNELS 3 Xrotation Yrotation Zrotation
						End Site
						{
							OFFSET 0.000000 6.156120 0.000000
						}
					}
				}
			}
		}
	}
	JOINT Pouch
	{
		OFFSET 0.000000 4.394501 10.847300
		CHANNELS 3 Xrotation Yrotation Zrotation
		End Site
		{
			OFFSET 0.000000 21.880577 0.000000
		}
	}
	JOINT Bag
	{
		OFFSET -13.229000 4.813004 -0.593300
		CHANNELS 3 Xrotation Yrotation Zrotation
		End Site
		{
			OFFSET 0.000000 21.880577 0.000000
		}
	}
	JOINT OccupyGuyFacialAnim_Joint
	{
		OFFSET 1.000000 -70.206398 -1.655000
		CHANNELS 3 Xrotation Yrotation Zrotation
		End Site
		{
			OFFSET 0.000000 21.880577 0.000000
		}
	}
}
MOTION
Frames: 4
Frame Time: 0.033333
0.013334 64.567078 0.099772 9.541015 -61.607828 10.158422 -0.000000 -0.000001 -0.000000 -34.029328 13.171188 22.629651 36.646069 -7.053371 1.214116 -8.818477 -1.958571 -15.290500 0.000000 0.000002 0.000000 0.000002 -0.000002 -0.000002 -29.117185 -21.188241 -31.057198 35.641399 3.719600 -4.155458 -13.966664 0.512592 21.622239 0.000000 -0.000000 0.000000 -0.000001 -0.000000 0.000000 15.066947 -0.337408 -4.289763 5.872819 0.571328 -2.801525 5.868656 0.648798 -2.855411 -3.634887 1.441539 3.747918 -20.004692 54.833595 2.408012 0.000000 0.000000 -0.000001 0.000000 0.000000 -0.000001 0.000000 0.000000 -0.000000 0.000000 0.000000 -0.000001 0.000000 -0.000000 -0.000000 0.000000 0.000000 -0.000001 0.000000 -0.000000 -0.000000 0.000000 0.000000 -0.000001 0.000000 0.000000 -0.000001 1.828140 -3.192623 -12.271581 -39.387082 26.350783 -34.911218 0.429303 -46.809001 0.416212 -10.314948 -0.130637 0.363039 40.109927 -15.297124 -0.360466 5.639892 28.097759 11.338765 0.000000 0.000003 0.000001 6.882240 2.840061 -61.140418 8.247984 7.640025 -89.897905 0.000002 0.000003 -0.000001 -2.345549 4.688852 -62.655238 8.754178 9.897042 -87.051287 0.000005 0.000001 -0.000003 -9.042505 10.045640 -60.766205 8.524155 9.508857 -66.893090 -0.000002 -0.000002 -0.000001 -17.946967 14.754943 -51.485887 8.868420 8.667002 -84.811975 0.000001 -0.000004 0.000002 0.000005 0.000001 -0.000001 0.631373 7.260417 8.703890 7.936162 -9.680244 53.429845 -22.866372 36.192025 17.964043 -27.375403 10.434498 -17.812554 -2.346117 -6.100485 10.731398 2.362985 -23.806686 -8.771001 -0.000000 0.000000 0.000000 -0.053175 0.532136 0.738699 0.018297 -0.087490 5.078534 -0.000000 -0.000002 -0.000000 0.344639 -5.871480 2.591020 1.416551 -4.229656 24.048374 0.000001 0.000000 0.000001 1.205165 -11.747361 4.154590 1.794873 -3.771861 26.865415 0.000001 -0.000001 -0.000000 2.140900 -19.215219 11.318428 3.354766 -2.122210 18.828593 0.000001 0.000001 0.000001 -0.000000 0.000000 0.000001 0.000001 -0.000001 -0.000001 -0.000000 -0.000002 0.000001 0.000001 -0.000001 0.000000 0.000001 -0.000001 0.000000 0.000001 -0.000001 -0.000001 -0.000000 -0.000002 0.000001 0.000001 -0.000001 0.000000 0.000001 -0.000001 0.000000 0.000001 -0.000001 -0.000001 -0.000000 -0.000002 0.000001 -0.000000 -0.000001 -0.000000 -0.000000 -0.000001 -0.000000 -0.000000 -0.000001 -0.000000 
-0.234564 64.340660 0.415818 9.214471 -58.991886 9.938088 0.000001 -0.000003 0.000000 -35.324676 12.618577 21.861868 38.014316 -7.945935 1.348637 -9.446841 -3.000704 -14.720519 0.000000 -0.000003 0.000000 -0.000000 -0.000004 -0.000003 -27.786927 -20.772350 -31.035106 36.168488 1.665351 -4.476666 -14.795158 -0.952541 22.998575 0.000000 -0.000000 0.000000 -0.000000 0.000000 -0.000000 15.715748 -0.325803 -4.322402 5.688137 0.500140 -2.808494 5.694665 0.561803 -2.857436 -3.168555 1.400781 4.398648 -22.261236 52.418102 3.665423 0.000001 -0.000000 -0.000000 0.000001 -0.000000 -0.000000 0.000001 -0.000000 0.000000 0.000001 -0.000000 -0.000001 0.000000 -0.000000 -0.000001 0.000001 -0.000000 -0.000001 0.000000 -0.000000 -0.000001 0.000001 -0.000000 -0.000000 0.000001 -0.000000 -0.000000 1.835888 -3.470974 -13.538477 -39.232965 24.209092 -35.135333 0.415917 -46.821459 0.313741 -8.212988 -0.921212 -0.990102 40.109931 -15.297120 -0.360465 5.639889 28.097752 11.338767 0.000000 0.000001 -0.000000 6.882240 2.840053 -61.140411 8.247989 7.640025 -89.897905 -0.000002 0.000001 -0.000002 -2.345550 4.688851 -62.655245 8.754175 9.897043 -87.051294 0.000000 0.000001 -0.000001 -9.042508 10.045636 -60.766212 8.524158 9.508855 -66.893090 -0.000003 -0.000002 -0.000001 -17.946964 14.754942 -51.485891 8.868421 8.667007 -84.811968 0.000001 0.000000 -0.000001 -0.000001 -0.000003 0.000002 0.904541 7.380377 7.431744 7.245861 -9.686164 51.957666 -22.450115 37.036212 17.859058 -26.580771 10.879320 -17.281296 -2.721155 -5.275544 11.169068 2.423231 -24.137209 -8.874878 0.000000 -0.000001 -0.000000 -0.052193 0.994091 -2.056812 0.055853 -0.414076 7.339360 0.000000 0.000001 0.000006 0.341671 -5.642885 1.171713 1.459733 -4.324436 24.744034 0.000003 0.000001 -0.000002 1.006269 -11.761296 4.170849 1.884660 -3.947526 28.028375 0.000001 -0.000001 -0.000000 2.142015 -19.222447 11.407458 3.417570 -2.321268 20.064295 0.000000 0.000001 -0.000003 0.000000 0.000001 0.000003 -0.000000 0.000002 -0.000001 0.000001 -0.000000 -0.000002 -0.000000 0.000002 -0.000002 -0.000000 0.000002 -0.000002 -0.000000 0.000002 -0.000001 0.000001 -0.000000 -0.000002 -0.000000 0.000002 -0.000002 -0.000000 0.000002 -0.000002 -0.000000 0.000002 -0.000001 0.000001 -0.000000 -0.000002 0.000001 -0.000003 0.000000 0.000001 -0.000003 0.000000 0.000001 -0.000003 0.000000 
-0.530043 64.202324 0.991663 8.816204 -56.609967 9.722270 0.000001 0.000002 0.000000 -35.931784 11.803558 20.452727 39.240188 -6.770774 1.911988 -10.335132 -5.122315 -14.728355 0.000000 0.000000 0.000000 -0.000001 0.000000 0.000001 -25.186440 -19.647808 -30.341678 35.677790 -0.044401 -4.843996 -15.053368 -3.737655 24.549501 -0.000000 -0.000000 0.000000 -0.000000 -0.000001 0.000000 17.235509 -0.300796 -4.404216 5.343329 0.403752 -2.820849 5.368943 0.449634 -2.863185 -2.073219 1.314356 5.836720 -26.718954 46.916815 5.988846 0.000000 -0.000001 0.000000 0.000000 -0.000001 0.000000 0.000000 -0.000001 0.000001 0.000000 -0.000001 0.000000 -0.000000 -0.000001 0.000000 0.000000 -0.000001 0.000000 -0.000000 -0.000001 0.000000 0.000000 -0.000001 0.000000 0.000000 -0.000001 0.000000 1.789523 -4.138384 -15.885565 -39.443861 19.954536 -35.302758 0.389054 -46.764342 0.096695 -3.290120 -2.115333 -4.032311 40.109927 -15.297126 -0.360462 5.639892 28.097757 11.338763 0.000000 -0.000000 0.000001 6.882239 2.840053 -61.140411 8.247990 7.640020 -89.897905 -0.000000 -0.000002 -0.000004 -2.345549 4.688848 -62.655245 8.754171 9.897041 -87.051294 0.000000 0.000002 -0.000001 -9.042508 10.045633 -60.766212 8.524159 9.508854 -66.893090 -0.000002 -0.000002 -0.000003 -17.946964 14.754942 -51.485891 8.868421 8.667003 -84.811975 0.000000 -0.000003 0.000001 0.000001 0.000005 -0.000004 1.671974 7.693820 3.954380 4.997388 -9.674355 47.956199 -21.232587 39.198917 17.418027 -24.956990 10.838590 -16.657221 -3.105340 -4.381669 11.704249 2.489375 -24.503514 -8.989688 0.000001 0.000000 -0.000000 -0.023754 1.501222 -5.155182 0.110653 -0.774039 9.844444 -0.000002 -0.000001 -0.000005 0.338953 -5.391214 -0.400804 1.507712 -4.426266 25.495679 0.000002 0.000000 0.000003 1.050591 -11.755328 3.624810 1.988697 -4.140139 29.317381 -0.000001 -0.000001 -0.000002 2.144247 -19.235184 11.506243 3.493650 -2.540392 21.433639 -0.000001 0.000002 -0.000001 -0.000000 -0.000003 0.000000 -0.000003 0.000002 -0.000000 -0.000001 0.000003 -0.000003 -0.000003 0.000002 -0.000001 -0.000003 0.000002 -0.000001 -0.000003 0.000002 -0.000000 -0.000001 0.000003 -0.000003 -0.000003 0.000002 -0.000001 -0.000003 0.000002 -0.000001 -0.000003 0.000002 -0.000000 -0.000001 0.000003 -0.000003 0.000001 0.000002 0.000000 0.000001 0.000002 0.000000 0.000001 0.000002 0.000000 
-0.901814 64.511353 1.750429 8.515472 -54.114301 9.591058 0.000000 -0.000002 0.000000 -35.141142 11.086324 18.423875 38.306255 -6.348476 2.498555 -10.421188 -6.103451 -14.651179 0.000000 0.000000 0.000000 0.000001 0.000001 0.000002 -20.653218 -18.949031 -28.826195 31.771410 -4.047289 -5.190651 -13.653145 -4.832403 26.620319 -0.000000 -0.000000 -0.000000 -0.000000 0.000000 0.000001 19.286793 -0.300958 -4.512584 5.124145 0.295563 -2.837132 5.155212 0.325592 -2.871826 -0.630967 1.214030 7.528379 -31.269040 40.027060 8.119257 -0.000000 -0.000000 -0.000001 -0.000000 -0.000000 -0.000001 -0.000000 -0.000000 -0.000000 -0.000000 -0.000000 -0.000001 -0.000000 -0.000000 0.000000 -0.000000 -0.000000 -0.000001 -0.000000 -0.000000 0.000000 -0.000000 -0.000000 -0.000001 -0.000000 -0.000000 -0.000001 1.589080 -5.252241 -18.469914 -40.817385 14.483643 -35.011697 0.354483 -46.646521 -0.212004 2.647736 -3.272620 -7.788383 40.109924 -15.297120 -0.360459 5.639890 28.097762 11.338759 -0.000000 0.000001 -0.000001 6.882236 2.840055 -61.140418 8.247986 7.640021 -89.897905 0.000000 0.000001 0.000000 -2.345547 4.688848 -62.655245 8.754173 9.897039 -87.051294 0.000004 0.000003 -0.000001 -9.042507 10.045636 -60.766205 8.524154 9.508859 -66.893090 0.000001 -0.000001 -0.000000 -17.946966 14.754938 -51.485891 8.868420 8.667004 -84.811975 -0.000001 -0.000005 0.000000 -0.000001 0.000001 -0.000001 2.874645 8.117098 -1.218739 0.848528 -9.409913 42.121992 -19.250304 42.222717 16.460353 -22.615562 10.445448 -15.936409 -3.499695 -3.440608 12.312003 2.559161 -24.895488 -9.112517 0.000003 -0.000002 0.000000 0.038023 2.036650 -8.470973 0.186558 -1.156017 12.524256 0.000000 0.000001 -0.000003 0.341649 -5.123778 -2.082454 1.563711 -4.541026 26.286468 0.000003 0.000001 -0.000001 1.098040 -11.749344 3.040873 2.105257 -4.343458 30.696687 0.000001 0.000001 -0.000002 2.146340 -19.248805 11.611770 3.582635 -2.772753 22.898703 -0.000002 -0.000001 0.000004 0.000000 0.000002 -0.000002 0.000003 -0.000001 0.000001 0.000003 0.000001 -0.000001 0.000003 -0.000001 0.000000 0.000003 -0.000001 0.000000 0.000003 -0.000001 0.000001 0.000003 0.000001 -0.000001 0.000003 -0.000001 0.000000 0.000003 -0.000001 0.000000 0.000003 -0.000001 0.000001 0.000003 0.000001 -0.000001 0.000000 -0.000002 0.000000 0.000000 -0.000002 0.000000 0.000000 -0.000002 0.000000 
